<?xml version="1.0" standalone="no"?>
<!DOCTYPE svg PUBLIC "-//W3C//DTD SVG 20010904//EN"
 "http://www.w3.org/TR/2001/REC-SVG-20010904/DTD/svg10.dtd">
<svg version="1.0" xmlns="http://www.w3.org/2000/svg"
 width="479.000000pt" height="479.000000pt" viewBox="0 0 479.000000 479.000000"
 preserveAspectRatio="xMidYMid meet">
<metadata>
Created by potrace 1.11, written by Peter Selinger 2001-2013
</metadata>
<g transform="translate(0.000000,479.000000) scale(0.100000,-0.100000)"
fill="#000000" stroke="none">
<path d="M1802 3680 c-218 -31 -389 -117 -534 -268 -112 -118 -184 -253 -224
-422 -16 -68 -18 -156 -21 -977 l-4 -903 396 0 395 0 0 843 0 843 23 44 c24
49 55 70 105 70 48 0 87 -24 108 -67 18 -36 19 -78 22 -886 l2 -847 395 0 395
0 0 836 c0 572 3 849 11 879 6 24 24 55 41 72 27 26 35 28 104 28 73 0 77 -1
105 -33 25 -28 29 -40 29 -91 0 -95 -40 -130 -167 -146 l-53 -7 0 -345 0 -346
178 6 c146 4 194 9 274 30 295 77 488 283 553 590 20 92 19 297 -1 395 -64
314 -303 572 -619 668 -83 26 -103 28 -265 28 -205 1 -280 -15 -442 -91 l-97
-45 -30 21 c-50 36 -156 80 -244 102 -94 23 -331 34 -435 19z"/>
</g>
</svg>
